<svg width="86" height="50" viewBox="0 0 86 50" fill="none" xmlns="http://www.w3.org/2000/svg">
<path d="M26.9344 6.16C27.4123 6.16 27.7195 6.3648 27.856 6.7744L27.9584 7.0304C26.4907 7.0304 25.3984 7.91787 24.6816 9.6928C23.9989 11.4336 23.4699 14.0107 23.0944 17.424C25.9957 17.9701 28.2144 19.6768 29.7504 22.544C31.9349 21.1445 33.6245 19.2672 34.8192 16.912C36.048 14.5568 36.6624 12.2357 36.6624 9.9488C36.6624 7.66187 35.792 5.68214 34.0512 4.0096C32.3445 2.33707 29.8869 1.5008 26.6784 1.5008C20.5003 1.5008 15.7216 3.7024 12.3424 8.1056C9.9872 11.2117 8.8096 14.5227 8.8096 18.0384C8.8096 21.5541 9.71413 23.9264 11.5232 25.1552C12.2741 25.6331 13.0933 25.872 13.9808 25.872C13.6395 26.6571 13.1104 27.0496 12.3936 27.0496C9.8336 27.0496 8.0416 25.7013 7.0176 23.0048C6.5056 21.7077 6.2496 20.24 6.2496 18.6016C6.2496 16.9291 6.62507 15.0688 7.376 13.0208C8.94613 8.54934 11.7792 5.17014 15.8752 2.8832C19.0155 1.10827 22.6165 0.220802 26.6784 0.220802C29.5797 0.220802 32.0373 0.681602 34.0512 1.6032C36.0651 2.5248 37.5157 3.7024 38.4032 5.136C39.3589 6.74027 39.8368 8.464 39.8368 10.3072C39.8368 12.1163 39.4784 13.8571 38.7616 15.5296C38.0789 17.2021 37.0037 18.8405 35.536 20.4448C34.1024 22.0149 32.4128 23.2779 30.4672 24.2336C31.3205 26.4523 32.0885 30.5824 32.7712 36.624C33.0101 38.5696 33.3344 40.464 33.744 42.3072C34.6315 46.1984 36.5259 48.144 39.4272 48.144C39.3589 48.7584 38.9152 49.0656 38.096 49.0656C33.9317 49.0656 31.4059 47.0859 30.5184 43.1264C30.0747 41.2491 29.7845 39.3547 29.648 37.4432C29.5456 35.5317 29.4432 33.3643 29.3408 30.9408C29.2384 28.4832 28.9995 26.5035 28.624 25.0016C26.7467 25.6843 24.7499 26.0256 22.6336 26.0256H22.1728C21.2171 33.4325 19.5957 38.5013 17.3088 41.232C16.3872 42.3584 15.1755 43.2971 13.6736 44.048C12.2059 44.7989 10.5675 45.1744 8.7584 45.1744C6.98347 45.1744 5.4816 44.8672 4.2528 44.2528C3.05813 43.6384 2.18773 42.8533 1.6416 41.8976C0.890667 40.4981 0.5152 39.2181 0.5152 38.0576C0.5152 36.8971 0.685867 35.8219 1.0272 34.832C1.36853 33.808 1.86347 32.8181 2.512 31.8624C3.16053 30.8725 4.01387 30.0704 5.072 29.456C6.13013 28.8416 7.2736 28.5344 8.5024 28.5344C9.18507 28.5344 9.66293 28.7733 9.936 29.2512L10.0384 29.5072C7.0688 29.5072 4.79893 30.7701 3.2288 33.296C2.34133 34.7296 1.8976 36.1973 1.8976 37.6992C1.8976 38.3819 1.98293 39.0816 2.1536 39.7984C2.90453 42.4608 4.78187 43.792 7.7856 43.792C9.2192 43.792 10.4992 43.4336 11.6256 42.7168C12.7861 42 13.7248 41.1125 14.4416 40.0544C15.1925 38.9963 15.8752 37.5968 16.4896 35.856C17.4112 33.1595 18.2304 29.6949 18.9472 25.4624C17.6501 25.0187 16.7285 24.3872 16.1824 23.568C15.6363 22.7147 15.3632 22.0661 15.3632 21.6224C15.3632 21.1787 15.3632 20.8715 15.3632 20.7008C15.5339 19.8133 16.0459 19.0283 16.8992 18.3456C17.7867 17.6288 18.9301 17.2533 20.3296 17.2192C20.7733 14.8981 21.2341 13.0037 21.712 11.536C22.1899 10.0341 22.8725 8.7712 23.76 7.7472C24.6475 6.68907 25.7056 6.16 26.9344 6.16ZM22.5824 24.6944C24.4939 24.6944 26.3541 24.2848 28.1632 23.4656C27.1392 20.7691 25.4155 19.1477 22.992 18.6016L22.3776 24.6944H22.5824ZM20.1248 18.3968C18.896 18.4992 18.0256 18.8747 17.5136 19.5232C17.0016 20.1376 16.7456 20.6496 16.7456 21.0592C16.7456 22.4587 17.5477 23.4827 19.152 24.1312C19.5616 21.5371 19.8859 19.6256 20.1248 18.3968ZM58.5037 27.8688C55.6024 27.0837 54.1517 25.4283 54.1517 22.9024C54.1517 21.9125 54.4077 21.1616 54.9197 20.6496C55.4658 20.1035 55.9266 19.8304 56.3021 19.8304C56.9165 19.8304 57.2749 20.0181 57.3773 20.3936L57.4285 20.5984C56.541 20.5984 55.9266 21.0933 55.5853 22.0832C55.4829 22.4245 55.4317 22.7659 55.4317 23.1072C55.4317 23.9947 55.773 24.7285 56.4557 25.3088C57.1725 25.8891 57.9405 26.2987 58.7597 26.5376C59.9202 19.6427 60.6712 15.4784 61.0125 14.0448C62.3096 8.78827 64.1528 5.88693 66.5421 5.3408C66.8493 5.27253 67.1565 5.2384 67.4637 5.2384C67.9757 5.2384 68.317 5.4432 68.4877 5.8528L68.5389 6.1088C67.1053 6.1088 65.996 6.89387 65.2109 8.464C64.46 10.0341 63.9309 11.7749 63.6237 13.6864C63.3506 15.5979 63.1458 17.0997 63.0093 18.192C62.8728 19.2843 62.7021 20.7349 62.4973 22.544C62.3266 24.3189 62.173 25.7696 62.0365 26.896C66.2349 26.7595 69.6994 24.8992 72.4301 21.3152C74.717 18.3115 75.8605 15.0517 75.8605 11.536C75.8605 7.57653 74.461 4.7264 71.6621 2.9856C70.0237 1.99573 68.0269 1.5008 65.6717 1.5008C59.0498 1.5008 54.0152 3.856 50.5677 8.5664C48.1784 11.7749 46.9837 15.3589 46.9837 19.3184C46.9837 23.2096 48.0077 25.9573 50.0557 27.5616C50.9773 28.3125 52.0354 28.688 53.2301 28.688C52.9229 29.4731 52.3938 29.8656 51.6429 29.8656C48.7757 29.8656 46.7448 28.3979 45.5501 25.4624C44.9016 23.8923 44.5773 22.2027 44.5773 20.3936C44.5773 18.5845 44.8845 16.6731 45.4989 14.6592C46.9666 9.88053 49.7144 6.17707 53.7421 3.5488C57.1213 1.33014 61.0978 0.220802 65.6717 0.220802C71.4402 0.220802 75.3826 2.08107 77.4989 5.8016C78.4888 7.50827 78.9837 9.24907 78.9837 11.024C78.9837 12.7989 78.6936 14.5568 78.1133 16.2976C76.8162 20.1888 74.461 23.2608 71.0477 25.5136C68.2829 27.2885 65.228 28.1931 61.8829 28.2272C60.8589 35.4635 59.1693 40.5323 56.8141 43.4336C55.8925 44.5941 54.7149 45.5328 53.2813 46.2496C51.8477 46.9664 50.2605 47.3248 48.5197 47.3248C46.7789 47.3248 45.2941 47.0176 44.0653 46.4032C42.8365 45.7888 41.9661 45.0037 41.4541 44.048C40.669 42.6485 40.2765 41.3685 40.2765 40.208C40.2765 39.0475 40.4472 37.9723 40.7885 36.9824C41.1298 35.9584 41.6248 34.9685 42.2733 34.0128C42.9218 33.0229 43.7752 32.2208 44.8333 31.6064C45.8914 30.992 47.0349 30.6848 48.2637 30.6848C48.9805 30.6848 49.4413 30.9237 49.6461 31.4016L49.7997 31.6576C46.8301 31.6576 44.5773 32.9205 43.0413 35.4464C42.1197 36.9141 41.6589 38.3819 41.6589 39.8496C41.6589 40.5664 41.7613 41.2661 41.9661 41.9488C42.6829 44.6112 44.5432 45.9424 47.5469 45.9424C48.8781 45.9424 50.0898 45.6011 51.1821 44.9184C52.2744 44.2357 53.1789 43.3653 53.8957 42.3072C54.6466 41.2832 55.3293 39.9179 55.9437 38.2112C56.8653 35.6512 57.7186 32.2037 58.5037 27.8688ZM84.3075 38.3136C85.0926 38.3136 85.4851 38.8427 85.4851 39.9008C85.4851 40.9589 84.9731 41.8123 83.9491 42.4608C83.4371 42.8021 82.9934 42.9728 82.6179 42.9728C82.0718 42.9728 81.7304 42.7509 81.5939 42.3072C81.9011 42.3072 82.123 41.9829 82.2595 41.3344C82.396 40.6517 82.6008 39.9861 82.8739 39.3376C83.1811 38.6549 83.659 38.3136 84.3075 38.3136Z" fill="url(#paint0_linear_3_28)"/>
<defs>
<linearGradient id="paint0_linear_3_28" x1="47" y1="-12" x2="56.1328" y2="75.7698" gradientUnits="userSpaceOnUse">
<stop stop-color="#339EDA"/>
<stop offset="1" stop-color="#020B11" stop-opacity="0.81"/>
</linearGradient>
</defs>
</svg>
